<mxfile host="app.diagrams.net" modified="2024-02-06T06:55:51.490Z" agent="Mozilla/5.0 (Windows NT 10.0; Win64; x64) AppleWebKit/537.36 (KHTML, like Gecko) Chrome/121.0.0.0 Safari/537.36" etag="UXOqedFAQK6Jwy2RtOqu" version="23.1.1" type="github">
  <diagram name="Page-1" id="TjJaTeAraglaGlIeOaYI">
    <mxGraphModel dx="1051" dy="651" grid="0" gridSize="10" guides="1" tooltips="1" connect="1" arrows="1" fold="1" page="0" pageScale="1" pageWidth="850" pageHeight="1100" math="0" shadow="0">
      <root>
        <mxCell id="0" />
        <mxCell id="1" parent="0" />
        <mxCell id="Ol9va0j0glZZ1pgGRdCW-12" style="edgeStyle=none;curved=1;rounded=0;orthogonalLoop=1;jettySize=auto;html=1;fontSize=12;startSize=8;endSize=8;" parent="1" source="Ol9va0j0glZZ1pgGRdCW-1" target="Ol9va0j0glZZ1pgGRdCW-2" edge="1">
          <mxGeometry relative="1" as="geometry">
            <Array as="points">
              <mxPoint x="117" y="222" />
            </Array>
          </mxGeometry>
        </mxCell>
        <mxCell id="Ol9va0j0glZZ1pgGRdCW-13" style="edgeStyle=none;curved=1;rounded=0;orthogonalLoop=1;jettySize=auto;html=1;entryX=0;entryY=0.75;entryDx=0;entryDy=0;fontSize=12;startSize=8;endSize=8;" parent="1" target="Ol9va0j0glZZ1pgGRdCW-3" edge="1">
          <mxGeometry relative="1" as="geometry">
            <mxPoint x="253.0020722175917" y="214.99592360070255" as="sourcePoint" />
            <mxPoint x="347.34" y="226.37" as="targetPoint" />
            <Array as="points">
              <mxPoint x="301" y="232" />
            </Array>
          </mxGeometry>
        </mxCell>
        <mxCell id="Ol9va0j0glZZ1pgGRdCW-15" style="edgeStyle=none;curved=1;rounded=0;orthogonalLoop=1;jettySize=auto;html=1;entryX=0.75;entryY=0;entryDx=0;entryDy=0;fontSize=12;startSize=8;endSize=8;exitX=0.717;exitY=0.981;exitDx=0;exitDy=0;exitPerimeter=0;" parent="1" source="Ol9va0j0glZZ1pgGRdCW-1" target="Ol9va0j0glZZ1pgGRdCW-4" edge="1">
          <mxGeometry relative="1" as="geometry">
            <mxPoint x="234" y="258" as="sourcePoint" />
            <Array as="points">
              <mxPoint x="251" y="282" />
            </Array>
          </mxGeometry>
        </mxCell>
        <mxCell id="Ol9va0j0glZZ1pgGRdCW-1" value="Online Learning System" style="ellipse;whiteSpace=wrap;html=1;aspect=fixed;fontSize=16;" parent="1" vertex="1">
          <mxGeometry x="162" y="154" width="94" height="94" as="geometry" />
        </mxCell>
        <mxCell id="Ol9va0j0glZZ1pgGRdCW-7" style="edgeStyle=none;curved=1;rounded=0;orthogonalLoop=1;jettySize=auto;html=1;fontSize=12;startSize=8;endSize=8;" parent="1" source="Ol9va0j0glZZ1pgGRdCW-2" target="Ol9va0j0glZZ1pgGRdCW-1" edge="1">
          <mxGeometry relative="1" as="geometry">
            <Array as="points">
              <mxPoint x="127" y="187" />
            </Array>
          </mxGeometry>
        </mxCell>
        <mxCell id="Ol9va0j0glZZ1pgGRdCW-2" value="Student" style="whiteSpace=wrap;html=1;aspect=fixed;fontSize=16;" parent="1" vertex="1">
          <mxGeometry x="-37" y="158" width="80" height="80" as="geometry" />
        </mxCell>
        <mxCell id="Ol9va0j0glZZ1pgGRdCW-8" style="edgeStyle=none;curved=1;rounded=0;orthogonalLoop=1;jettySize=auto;html=1;fontSize=12;startSize=8;endSize=8;" parent="1" source="Ol9va0j0glZZ1pgGRdCW-3" target="Ol9va0j0glZZ1pgGRdCW-1" edge="1">
          <mxGeometry relative="1" as="geometry">
            <Array as="points">
              <mxPoint x="303" y="191" />
            </Array>
          </mxGeometry>
        </mxCell>
        <mxCell id="Ol9va0j0glZZ1pgGRdCW-3" value="Teacher" style="whiteSpace=wrap;html=1;aspect=fixed;fontSize=16;" parent="1" vertex="1">
          <mxGeometry x="350" y="158" width="80" height="80" as="geometry" />
        </mxCell>
        <mxCell id="Ol9va0j0glZZ1pgGRdCW-4" value="Admin" style="whiteSpace=wrap;html=1;aspect=fixed;fontSize=16;" parent="1" vertex="1">
          <mxGeometry x="174" y="357" width="80" height="80" as="geometry" />
        </mxCell>
        <mxCell id="Ol9va0j0glZZ1pgGRdCW-9" style="edgeStyle=none;curved=1;rounded=0;orthogonalLoop=1;jettySize=auto;html=1;exitX=0.5;exitY=0;exitDx=0;exitDy=0;fontSize=12;startSize=8;endSize=8;" parent="1" source="Ol9va0j0glZZ1pgGRdCW-4" target="Ol9va0j0glZZ1pgGRdCW-4" edge="1">
          <mxGeometry relative="1" as="geometry" />
        </mxCell>
        <mxCell id="Ol9va0j0glZZ1pgGRdCW-14" style="edgeStyle=none;curved=1;rounded=0;orthogonalLoop=1;jettySize=auto;html=1;exitX=0.25;exitY=0;exitDx=0;exitDy=0;entryX=0.223;entryY=0.972;entryDx=0;entryDy=0;entryPerimeter=0;fontSize=12;startSize=8;endSize=8;" parent="1" source="Ol9va0j0glZZ1pgGRdCW-4" target="Ol9va0j0glZZ1pgGRdCW-1" edge="1">
          <mxGeometry relative="1" as="geometry">
            <Array as="points">
              <mxPoint x="195" y="301" />
              <mxPoint x="170" y="290" />
            </Array>
          </mxGeometry>
        </mxCell>
        <mxCell id="Ol9va0j0glZZ1pgGRdCW-16" value="Register" style="text;html=1;strokeColor=none;fillColor=none;align=center;verticalAlign=middle;whiteSpace=wrap;rounded=0;fontSize=16;" parent="1" vertex="1">
          <mxGeometry x="90" y="158" width="60" height="30" as="geometry" />
        </mxCell>
        <mxCell id="Ol9va0j0glZZ1pgGRdCW-17" value="get Course" style="text;html=1;align=center;verticalAlign=middle;resizable=0;points=[];autosize=1;strokeColor=none;fillColor=none;fontSize=16;" parent="1" vertex="1">
          <mxGeometry x="72" y="214" width="96" height="31" as="geometry" />
        </mxCell>
        <mxCell id="Ol9va0j0glZZ1pgGRdCW-18" value="create course" style="text;html=1;align=center;verticalAlign=middle;resizable=0;points=[];autosize=1;strokeColor=none;fillColor=none;fontSize=16;" parent="1" vertex="1">
          <mxGeometry x="245" y="162" width="115" height="31" as="geometry" />
        </mxCell>
        <mxCell id="Ol9va0j0glZZ1pgGRdCW-19" value="student report" style="text;html=1;align=center;verticalAlign=middle;resizable=0;points=[];autosize=1;strokeColor=none;fillColor=none;fontSize=16;" parent="1" vertex="1">
          <mxGeometry x="256" y="231" width="117" height="31" as="geometry" />
        </mxCell>
        <mxCell id="Ol9va0j0glZZ1pgGRdCW-20" value="make updates" style="text;html=1;align=center;verticalAlign=middle;resizable=0;points=[];autosize=1;strokeColor=none;fillColor=none;fontSize=16;" parent="1" vertex="1">
          <mxGeometry x="88" y="286" width="119" height="31" as="geometry" />
        </mxCell>
        <mxCell id="Ol9va0j0glZZ1pgGRdCW-21" value="Get report of users" style="text;html=1;align=center;verticalAlign=middle;resizable=0;points=[];autosize=1;strokeColor=none;fillColor=none;fontSize=16;" parent="1" vertex="1">
          <mxGeometry x="239" y="294" width="151" height="31" as="geometry" />
        </mxCell>
      </root>
    </mxGraphModel>
  </diagram>
</mxfile>
